<mxfile host="app.diagrams.net" agent="Mozilla/5.0 (Windows NT 10.0; Win64; x64) AppleWebKit/537.36 (KHTML, like Gecko) Chrome/134.0.0.0 Safari/537.36" version="26.1.0">
  <diagram name="페이지-1" id="D3kO5CZEnwIqbZIuZdMd">
    <mxGraphModel dx="1434" dy="746" grid="1" gridSize="10" guides="1" tooltips="1" connect="1" arrows="1" fold="1" page="1" pageScale="1" pageWidth="827" pageHeight="1169" math="0" shadow="0">
      <root>
        <mxCell id="0" />
        <mxCell id="1" parent="0" />
        <mxCell id="iqqHk56x10kYQnbfeyk_-45" value="" style="rounded=0;whiteSpace=wrap;html=1;" vertex="1" parent="1">
          <mxGeometry x="460" y="220" width="320" height="510" as="geometry" />
        </mxCell>
        <mxCell id="iqqHk56x10kYQnbfeyk_-44" value="" style="rounded=0;whiteSpace=wrap;html=1;" vertex="1" parent="1">
          <mxGeometry x="20" y="30" width="320" height="700" as="geometry" />
        </mxCell>
        <mxCell id="iqqHk56x10kYQnbfeyk_-11" style="edgeStyle=orthogonalEdgeStyle;rounded=0;orthogonalLoop=1;jettySize=auto;html=1;exitX=0.5;exitY=1;exitDx=0;exitDy=0;entryX=0.5;entryY=0;entryDx=0;entryDy=0;" edge="1" parent="1" source="iqqHk56x10kYQnbfeyk_-4" target="iqqHk56x10kYQnbfeyk_-6">
          <mxGeometry relative="1" as="geometry" />
        </mxCell>
        <mxCell id="iqqHk56x10kYQnbfeyk_-4" value="로그인(필요시) &amp;gt; 다운로드 페이지 open" style="rounded=1;whiteSpace=wrap;html=1;" vertex="1" parent="1">
          <mxGeometry x="160" y="130" width="160" height="70" as="geometry" />
        </mxCell>
        <mxCell id="iqqHk56x10kYQnbfeyk_-9" style="edgeStyle=orthogonalEdgeStyle;rounded=0;orthogonalLoop=1;jettySize=auto;html=1;entryX=0;entryY=0.5;entryDx=0;entryDy=0;" edge="1" parent="1" source="iqqHk56x10kYQnbfeyk_-6" target="iqqHk56x10kYQnbfeyk_-8">
          <mxGeometry relative="1" as="geometry">
            <Array as="points">
              <mxPoint x="50" y="270" />
              <mxPoint x="50" y="670" />
              <mxPoint x="170" y="670" />
            </Array>
          </mxGeometry>
        </mxCell>
        <mxCell id="iqqHk56x10kYQnbfeyk_-16" style="edgeStyle=orthogonalEdgeStyle;rounded=0;orthogonalLoop=1;jettySize=auto;html=1;exitX=0.5;exitY=1;exitDx=0;exitDy=0;entryX=0.5;entryY=0;entryDx=0;entryDy=0;" edge="1" parent="1" source="iqqHk56x10kYQnbfeyk_-6" target="iqqHk56x10kYQnbfeyk_-15">
          <mxGeometry relative="1" as="geometry" />
        </mxCell>
        <mxCell id="iqqHk56x10kYQnbfeyk_-6" value="기존 업데이트 비교" style="rhombus;whiteSpace=wrap;html=1;" vertex="1" parent="1">
          <mxGeometry x="160" y="230" width="160" height="80" as="geometry" />
        </mxCell>
        <mxCell id="iqqHk56x10kYQnbfeyk_-8" value="End" style="whiteSpace=wrap;html=1;" vertex="1" parent="1">
          <mxGeometry x="180" y="640" width="120" height="60" as="geometry" />
        </mxCell>
        <mxCell id="iqqHk56x10kYQnbfeyk_-10" value="==" style="text;html=1;align=center;verticalAlign=middle;resizable=0;points=[];autosize=1;strokeColor=none;fillColor=none;" vertex="1" parent="1">
          <mxGeometry x="100" y="238" width="40" height="30" as="geometry" />
        </mxCell>
        <mxCell id="iqqHk56x10kYQnbfeyk_-14" style="edgeStyle=orthogonalEdgeStyle;rounded=0;orthogonalLoop=1;jettySize=auto;html=1;exitX=0.5;exitY=1;exitDx=0;exitDy=0;" edge="1" parent="1" source="iqqHk56x10kYQnbfeyk_-13" target="iqqHk56x10kYQnbfeyk_-4">
          <mxGeometry relative="1" as="geometry" />
        </mxCell>
        <mxCell id="iqqHk56x10kYQnbfeyk_-13" value="다운로드 일자 가져오기" style="rounded=1;whiteSpace=wrap;html=1;" vertex="1" parent="1">
          <mxGeometry x="160" y="60" width="160" height="30" as="geometry" />
        </mxCell>
        <mxCell id="iqqHk56x10kYQnbfeyk_-22" style="edgeStyle=orthogonalEdgeStyle;rounded=0;orthogonalLoop=1;jettySize=auto;html=1;exitX=0.5;exitY=1;exitDx=0;exitDy=0;entryX=0.5;entryY=0;entryDx=0;entryDy=0;" edge="1" parent="1" source="iqqHk56x10kYQnbfeyk_-15" target="iqqHk56x10kYQnbfeyk_-18">
          <mxGeometry relative="1" as="geometry" />
        </mxCell>
        <mxCell id="iqqHk56x10kYQnbfeyk_-15" value="다운로드 클릭" style="rounded=1;whiteSpace=wrap;html=1;" vertex="1" parent="1">
          <mxGeometry x="160" y="340" width="160" height="50" as="geometry" />
        </mxCell>
        <mxCell id="iqqHk56x10kYQnbfeyk_-25" style="edgeStyle=orthogonalEdgeStyle;rounded=0;orthogonalLoop=1;jettySize=auto;html=1;exitX=0;exitY=0.5;exitDx=0;exitDy=0;" edge="1" parent="1" source="iqqHk56x10kYQnbfeyk_-18">
          <mxGeometry relative="1" as="geometry">
            <mxPoint x="240" y="420" as="targetPoint" />
            <Array as="points">
              <mxPoint x="140" y="490" />
              <mxPoint x="140" y="420" />
            </Array>
          </mxGeometry>
        </mxCell>
        <mxCell id="iqqHk56x10kYQnbfeyk_-28" style="edgeStyle=orthogonalEdgeStyle;rounded=0;orthogonalLoop=1;jettySize=auto;html=1;entryX=0.5;entryY=0;entryDx=0;entryDy=0;" edge="1" parent="1" source="iqqHk56x10kYQnbfeyk_-18" target="iqqHk56x10kYQnbfeyk_-27">
          <mxGeometry relative="1" as="geometry" />
        </mxCell>
        <mxCell id="iqqHk56x10kYQnbfeyk_-18" value="다운로드 완료 체크" style="rhombus;whiteSpace=wrap;html=1;" vertex="1" parent="1">
          <mxGeometry x="160" y="460" width="160" height="60" as="geometry" />
        </mxCell>
        <mxCell id="iqqHk56x10kYQnbfeyk_-26" value="No" style="text;html=1;align=center;verticalAlign=middle;resizable=0;points=[];autosize=1;strokeColor=none;fillColor=none;" vertex="1" parent="1">
          <mxGeometry x="110" y="460" width="40" height="30" as="geometry" />
        </mxCell>
        <mxCell id="iqqHk56x10kYQnbfeyk_-29" style="edgeStyle=orthogonalEdgeStyle;rounded=0;orthogonalLoop=1;jettySize=auto;html=1;entryX=0.5;entryY=0;entryDx=0;entryDy=0;" edge="1" parent="1" source="iqqHk56x10kYQnbfeyk_-27" target="iqqHk56x10kYQnbfeyk_-8">
          <mxGeometry relative="1" as="geometry" />
        </mxCell>
        <mxCell id="iqqHk56x10kYQnbfeyk_-27" value="다운로드 날짜 변경" style="rounded=1;whiteSpace=wrap;html=1;" vertex="1" parent="1">
          <mxGeometry x="160" y="554.5" width="160" height="60" as="geometry" />
        </mxCell>
        <mxCell id="iqqHk56x10kYQnbfeyk_-38" style="edgeStyle=orthogonalEdgeStyle;rounded=0;orthogonalLoop=1;jettySize=auto;html=1;exitX=0.5;exitY=1;exitDx=0;exitDy=0;" edge="1" parent="1" source="iqqHk56x10kYQnbfeyk_-31" target="iqqHk56x10kYQnbfeyk_-37">
          <mxGeometry relative="1" as="geometry" />
        </mxCell>
        <mxCell id="iqqHk56x10kYQnbfeyk_-31" value="압축해제 및 100만 row단위 slice" style="rounded=1;whiteSpace=wrap;html=1;" vertex="1" parent="1">
          <mxGeometry x="540" y="323" width="160" height="60" as="geometry" />
        </mxCell>
        <mxCell id="iqqHk56x10kYQnbfeyk_-32" value="End" style="whiteSpace=wrap;html=1;" vertex="1" parent="1">
          <mxGeometry x="540" y="640" width="160" height="60" as="geometry" />
        </mxCell>
        <mxCell id="iqqHk56x10kYQnbfeyk_-34" style="edgeStyle=orthogonalEdgeStyle;rounded=0;orthogonalLoop=1;jettySize=auto;html=1;exitX=0;exitY=0.5;exitDx=0;exitDy=0;entryX=0;entryY=0.5;entryDx=0;entryDy=0;" edge="1" parent="1" source="iqqHk56x10kYQnbfeyk_-33" target="iqqHk56x10kYQnbfeyk_-32">
          <mxGeometry relative="1" as="geometry">
            <Array as="points">
              <mxPoint x="540" y="270" />
              <mxPoint x="470" y="270" />
              <mxPoint x="470" y="670" />
            </Array>
          </mxGeometry>
        </mxCell>
        <mxCell id="iqqHk56x10kYQnbfeyk_-36" style="edgeStyle=orthogonalEdgeStyle;rounded=0;orthogonalLoop=1;jettySize=auto;html=1;exitX=0.5;exitY=1;exitDx=0;exitDy=0;entryX=0.5;entryY=0;entryDx=0;entryDy=0;" edge="1" parent="1" source="iqqHk56x10kYQnbfeyk_-33" target="iqqHk56x10kYQnbfeyk_-31">
          <mxGeometry relative="1" as="geometry" />
        </mxCell>
        <mxCell id="iqqHk56x10kYQnbfeyk_-33" value="다운로드 여부 확인" style="rhombus;whiteSpace=wrap;html=1;" vertex="1" parent="1">
          <mxGeometry x="540" y="238" width="160" height="60" as="geometry" />
        </mxCell>
        <mxCell id="iqqHk56x10kYQnbfeyk_-35" value="No" style="text;html=1;align=center;verticalAlign=middle;resizable=0;points=[];autosize=1;strokeColor=none;fillColor=none;" vertex="1" parent="1">
          <mxGeometry x="490" y="241" width="40" height="30" as="geometry" />
        </mxCell>
        <mxCell id="iqqHk56x10kYQnbfeyk_-42" style="edgeStyle=orthogonalEdgeStyle;rounded=0;orthogonalLoop=1;jettySize=auto;html=1;exitX=0.5;exitY=1;exitDx=0;exitDy=0;" edge="1" parent="1" source="iqqHk56x10kYQnbfeyk_-37" target="iqqHk56x10kYQnbfeyk_-41">
          <mxGeometry relative="1" as="geometry" />
        </mxCell>
        <mxCell id="iqqHk56x10kYQnbfeyk_-37" value="update 및 삭제 후 insert" style="rounded=1;whiteSpace=wrap;html=1;" vertex="1" parent="1">
          <mxGeometry x="540" y="440" width="160" height="60" as="geometry" />
        </mxCell>
        <mxCell id="iqqHk56x10kYQnbfeyk_-43" style="edgeStyle=orthogonalEdgeStyle;rounded=0;orthogonalLoop=1;jettySize=auto;html=1;exitX=0.5;exitY=1;exitDx=0;exitDy=0;" edge="1" parent="1" source="iqqHk56x10kYQnbfeyk_-41" target="iqqHk56x10kYQnbfeyk_-32">
          <mxGeometry relative="1" as="geometry" />
        </mxCell>
        <mxCell id="iqqHk56x10kYQnbfeyk_-41" value="기타 추가 데이터 설정" style="rounded=1;whiteSpace=wrap;html=1;" vertex="1" parent="1">
          <mxGeometry x="540" y="540" width="160" height="60" as="geometry" />
        </mxCell>
        <mxCell id="iqqHk56x10kYQnbfeyk_-46" value="파일 읽어서 insert" style="text;html=1;align=center;verticalAlign=middle;resizable=0;points=[];autosize=1;strokeColor=none;fillColor=none;" vertex="1" parent="1">
          <mxGeometry x="430" y="178" width="120" height="30" as="geometry" />
        </mxCell>
        <mxCell id="iqqHk56x10kYQnbfeyk_-47" value="파일 업로드 여부 판별 후 다운로드" style="text;html=1;align=center;verticalAlign=middle;resizable=0;points=[];autosize=1;strokeColor=none;fillColor=none;" vertex="1" parent="1">
          <mxGeometry x="20" width="210" height="30" as="geometry" />
        </mxCell>
      </root>
    </mxGraphModel>
  </diagram>
</mxfile>
